<?xml version="1.0" standalone="no"?>
<!DOCTYPE svg PUBLIC "-//W3C//DTD SVG 20010904//EN"
 "http://www.w3.org/TR/2001/REC-SVG-20010904/DTD/svg10.dtd">
<svg version="1.0" xmlns="http://www.w3.org/2000/svg"
 width="1440.000000pt" height="1440.000000pt" viewBox="0 0 1440.000000 1440.000000"
 preserveAspectRatio="xMidYMid meet">

<g transform="translate(0.000000,1440.000000) scale(0.100000,-0.100000)"
fill="#000000" stroke="none">
<path d="M0 7200 l0 -7200 7200 0 7200 0 0 7200 0 7200 -7200 0 -7200 0 0
-7200z m5895 2668 c113 -39 198 -91 286 -178 82 -81 79 -77 304 -485 338 -616
396 -718 401 -712 7 6 306 538 471 837 141 253 166 292 228 355 80 82 185 147
295 184 l75 26 613 3 c336 2 612 1 612 -1 0 -3 -126 -231 -270 -487 -96 -171
-595 -1069 -675 -1215 -45 -82 -124 -224 -175 -315 -187 -334 -638 -1146 -659
-1187 -12 -24 -25 -43 -29 -43 -4 0 -35 54 -70 119 -35 65 -86 156 -113 202
-95 159 -104 179 -91 197 6 9 77 134 158 277 244 432 292 518 436 775 63 113
179 320 258 460 79 140 194 345 255 455 62 110 125 222 140 249 l28 48 -154
-4 c-149 -4 -156 -5 -221 -36 -41 -20 -81 -49 -105 -76 -21 -24 -132 -212
-247 -417 -115 -206 -238 -426 -273 -489 -322 -576 -479 -853 -486 -854 -5 0
-48 71 -96 159 -48 88 -124 225 -168 305 -135 245 -406 737 -456 830 -63 115
-191 347 -213 385 -37 64 -104 126 -174 159 -62 29 -72 31 -207 34 -79 2 -143
2 -143 -1 0 -2 56 -105 123 -228 68 -123 194 -352 279 -509 85 -157 217 -397
293 -535 76 -137 164 -297 195 -355 31 -58 116 -215 190 -350 73 -135 228
-418 343 -630 115 -212 219 -397 231 -411 56 -68 159 -122 268 -140 118 -19
276 29 355 108 26 26 147 234 382 658 457 824 445 802 565 1025 57 107 110
203 118 212 12 16 38 18 283 18 168 1 269 -3 268 -9 -2 -5 -73 -135 -159 -288
-86 -153 -200 -357 -254 -453 -54 -96 -190 -339 -302 -540 -113 -201 -263
-468 -333 -595 -70 -126 -147 -255 -171 -286 -102 -129 -272 -243 -436 -289
-95 -28 -285 -37 -399 -20 -256 37 -494 190 -606 391 -100 178 -286 515 -441
794 -60 110 -143 261 -184 335 -41 74 -148 270 -238 435 -89 165 -184 338
-210 385 -26 47 -89 162 -140 255 -52 94 -148 267 -213 385 -105 189 -303 546
-409 741 -20 36 -75 134 -122 218 l-85 152 597 -3 597 -3 80 -27z m1608 -4327
c61 -23 98 -105 78 -171 -30 -101 -167 -138 -255 -69 -84 66 -69 191 29 235
35 16 113 18 148 5z m3597 -761 l0 -750 -115 0 -115 0 0 60 c0 33 -3 60 -6 60
-3 0 -23 -13 -43 -29 -87 -68 -172 -94 -306 -94 -169 1 -291 55 -406 180 -83
90 -121 186 -127 320 -8 187 39 323 151 437 100 101 216 146 380 146 129 0
252 -42 325 -110 l22 -21 0 276 0 275 120 0 120 0 0 -750z m-7229 661 c3 -3
16 -31 28 -61 72 -174 288 -658 378 -850 25 -52 52 -111 60 -130 l15 -35 79
156 c71 143 196 415 361 787 l63 143 123 2 c67 1 122 -1 122 -5 0 -23 -609
-1376 -632 -1405 -7 -9 -45 -13 -123 -13 l-112 0 -68 153 c-84 188 -211 470
-411 910 -85 186 -154 345 -154 353 0 13 20 14 133 8 72 -4 135 -9 138 -13z
m5797 10 l103 -1 -3 -107 -3 -108 -375 0 -375 0 -3 -187 -2 -188 339 0 339 0
1 -105 1 -105 -340 0 -340 0 2 -197 3 -198 393 -3 393 -2 -3 -108 -3 -107
-515 2 -515 1 -3 689 c-1 378 0 698 3 710 l5 23 398 -4 c218 -3 443 -5 500 -5z
m-3870 -356 c182 -43 330 -175 381 -339 21 -69 36 -203 27 -241 l-6 -25 -416
0 -416 0 7 -32 c26 -119 121 -197 269 -220 99 -15 189 0 280 46 77 40 65 42
148 -33 26 -24 48 -50 48 -57 0 -18 -62 -67 -130 -103 -82 -44 -176 -63 -300
-63 -333 2 -570 226 -570 539 0 257 152 460 392 523 88 23 201 25 286 5z
m1282 -102 l0 -118 -75 -1 c-131 -2 -219 -63 -267 -184 -21 -51 -23 -76 -28
-355 l-5 -300 -114 0 -115 0 -7 30 c-5 17 -7 255 -6 530 l2 500 123 3 122 3 0
-72 0 -72 44 41 c76 70 173 109 274 111 l52 1 0 -117z m480 -423 l0 -530 -22
-2 c-13 -1 -69 -2 -125 -3 l-103 -1 0 533 0 533 125 0 125 0 0 -530z m880 50
l0 -110 -285 0 -285 0 0 110 0 110 285 0 285 0 0 -110z"/>
<path d="M10460 4894 c-158 -42 -247 -173 -238 -348 10 -206 176 -337 386
-304 149 23 240 136 249 308 9 151 -50 261 -170 319 -77 37 -153 45 -227 25z"/>
<path d="M5590 4906 c-71 -16 -110 -37 -148 -81 -37 -41 -56 -76 -70 -126
l-10 -37 72 -5 c39 -3 177 -5 306 -4 l235 2 -4 30 c-10 91 -95 183 -199 215
-72 23 -103 24 -182 6z"/>
</g>
</svg>
